<svg id="brush-line" xmlns="http://www.w3.org/2000/svg" width="100" height="100" viewBox="0 0 100 100">
  <path id="Path_19" data-name="Path 19" d="M0,0H100V100H0Z" fill="none"/>
  <path id="Path_20" data-name="Path 20" d="M61.233,33.47l-.592-.592a22.812,22.812,0,0,0-9.958-5.621c-12.113-3.242-23.746,3.621-27.05,15.958a19.14,19.14,0,0,0-.433,3.3c-.642,7.792-2.475,13.6-7.5,19.5,9.417,3.7,20.575,6.308,29.058,6.308A22.927,22.927,0,0,0,61.233,33.47ZM52.208,19.045l20.579-16a4.167,4.167,0,0,1,5.5.342L90.767,15.858a4.167,4.167,0,0,1,.342,5.5l-16,20.575A31.271,31.271,0,0,1,44.762,80.653C30.167,80.653,11.417,74.4,1,68.145,17.583,55.645,13.7,48.1,15.583,41.062,19.992,24.6,35.758,14.991,52.2,19.045Zm14.221,7.829c.271.262.542.533.8.808l4.729,4.725L82.275,19.149,75,11.874,61.742,22.187l4.687,4.688Z" transform="translate(3.167 6.855)" fill="#05f"/>
</svg>
