<svg id="instagram-line" xmlns="http://www.w3.org/2000/svg" width="50" height="50" viewBox="0 0 50 50">
  <path id="Path_29" data-name="Path 29" d="M0,0H50V50H0Z" fill="none"/>
  <path id="Path_30" data-name="Path 30" d="M22.833,16.583a6.25,6.25,0,1,0,6.25,6.25A6.25,6.25,0,0,0,22.833,16.583Zm0-4.167A10.417,10.417,0,1,1,12.417,22.833,10.417,10.417,0,0,1,22.833,12.417ZM36.375,11.9a2.6,2.6,0,1,1-2.6-2.6A2.6,2.6,0,0,1,36.375,11.9ZM22.833,6.167c-5.154,0-6,.015-8.394.121a11.318,11.318,0,0,0-3.746.692,6.013,6.013,0,0,0-2.25,1.465,6.021,6.021,0,0,0-1.467,2.25,11.3,11.3,0,0,0-.69,3.746c-.108,2.3-.121,3.1-.121,8.394,0,5.154.015,6,.121,8.394a11.363,11.363,0,0,0,.69,3.744,6.478,6.478,0,0,0,3.713,3.715,11.342,11.342,0,0,0,3.75.694c2.3.108,3.1.121,8.394.121,5.154,0,6-.015,8.394-.121a11.385,11.385,0,0,0,3.744-.69,6.085,6.085,0,0,0,2.25-1.462,6.024,6.024,0,0,0,1.467-2.25,11.39,11.39,0,0,0,.692-3.75c.108-2.3.121-3.1.121-8.394,0-5.154-.015-6-.121-8.394a11.34,11.34,0,0,0-.692-3.746,6.065,6.065,0,0,0-1.465-2.25,6.008,6.008,0,0,0-2.25-1.467,11.313,11.313,0,0,0-3.746-.69C28.927,6.179,28.123,6.167,22.833,6.167Zm0-4.167c5.66,0,6.367.021,8.587.125a15.348,15.348,0,0,1,5.058.969,10.157,10.157,0,0,1,3.692,2.4,10.225,10.225,0,0,1,2.4,3.692,15.39,15.39,0,0,1,.969,5.058c.1,2.221.125,2.927.125,8.588s-.021,6.367-.125,8.587a15.4,15.4,0,0,1-.969,5.058,10.637,10.637,0,0,1-6.094,6.094,15.39,15.39,0,0,1-5.058.969c-2.221.1-2.927.125-8.587.125s-6.367-.021-8.588-.125a15.4,15.4,0,0,1-5.058-.969,10.637,10.637,0,0,1-6.094-6.094,15.336,15.336,0,0,1-.969-5.058C2.027,29.2,2,28.494,2,22.833s.021-6.367.125-8.588a15.336,15.336,0,0,1,.969-5.058A10.167,10.167,0,0,1,5.5,5.5a10.2,10.2,0,0,1,3.692-2.4,15.336,15.336,0,0,1,5.058-.969C16.467,2.027,17.173,2,22.833,2Z" transform="translate(2.167 2.167)" fill="#05f"/>
</svg>
