<svg id="linkedin-box-line" xmlns="http://www.w3.org/2000/svg" width="50" height="50" viewBox="0 0 50 50">
  <path id="Path_31" data-name="Path 31" d="M0,0H50V50H0Z" fill="none"/>
  <path id="Path_32" data-name="Path 32" d="M5.184,3H40.13a2.184,2.184,0,0,1,2.184,2.184V40.13a2.184,2.184,0,0,1-2.184,2.184H5.184A2.184,2.184,0,0,1,3,40.13V5.184A2.184,2.184,0,0,1,5.184,3ZM7.368,7.368V37.946H37.946V7.368Zm5.46,8.736A3.276,3.276,0,1,1,16.1,12.829,3.276,3.276,0,0,1,12.829,16.1Zm-2.184,2.184h4.368V34.67H10.644Zm12.013.939A6.382,6.382,0,0,1,27.025,17.2c4.523,0,7.644,3.667,7.644,8.19V34.67H30.3V25.387a3.822,3.822,0,0,0-7.644,0V34.67H18.289V18.289h4.368Z" transform="translate(2.343 2.343)" fill="#05f"/>
</svg>
