<svg id="file-copy-2-line" xmlns="http://www.w3.org/2000/svg" width="50" height="50" viewBox="0 0 50 50">
  <path id="Path_17" data-name="Path 17" d="M0,0H50V50H0Z" fill="none"/>
  <path id="Path_18" data-name="Path 18" d="M11.333,10.333V4.083A2.083,2.083,0,0,1,13.417,2h25A2.083,2.083,0,0,1,40.5,4.083V33.25a2.083,2.083,0,0,1-2.083,2.083h-6.25v6.25a2.09,2.09,0,0,1-2.1,2.083H5.1A2.085,2.085,0,0,1,3,41.583l.006-29.167a2.089,2.089,0,0,1,2.1-2.083ZM7.171,14.5l0,25H28v-25ZM15.5,10.333H32.167V31.167h4.167v-25H15.5ZM11.333,20.75h12.5v4.167h-12.5Zm0,8.333h12.5V33.25h-12.5Z" transform="translate(3.25 2.167)"/>
</svg>
