<svg xmlns="http://www.w3.org/2000/svg" width="50" height="51.424" viewBox="0 0 50 51.424">
  <g id="mon_logo-01" data-name="mon logo-01" transform="translate(-62.484 -58.507)">
    <path id="Path_7" data-name="Path 7" d="M187.56,58.73H199q7.818,0,11.351,2.225t3.531,7.076a8.918,8.918,0,0,1-1.545,5.405,6.182,6.182,0,0,1-4.111,2.545v.251a8.129,8.129,0,0,1,5.042,2.909,9.436,9.436,0,0,1,1.545,5.682,9.36,9.36,0,0,1-3.636,7.844c-2.422,1.876-5.711,2.756-9.867,2.756H187.56Zm7.818,14.515h4.507a8.336,8.336,0,0,0,4.587-.938,3.647,3.647,0,0,0,1.42-3.244,3.246,3.246,0,0,0-1.545-3.029,9.928,9.928,0,0,0-4.889-.918h-4.085Zm-.018,6.182v9.636h5.078a7.522,7.522,0,0,0,4.751-1.245,4.55,4.55,0,0,0,1.535-3.771c0-3.051-2.182-4.62-6.536-4.62Z" transform="translate(-102.343 -0.223)" fill="#fff"/>
    <rect id="Rectangle_11" data-name="Rectangle 11" width="7.818" height="7.818" transform="translate(104.666 102.112)" fill="#fff"/>
    <rect id="Rectangle_12" data-name="Rectangle 12" width="7.869" height="7.869" transform="translate(62.667 58.57)" fill="#fff"/>
    <path id="Path_8" data-name="Path 8" d="M81.243,138.56q-7.513,0-11.122,2.727T66.515,149.6a9.767,9.767,0,0,0,1.791,5.784,11.846,11.846,0,0,0,5.069,3.971Q65.052,171.78,62.53,175.409h8.676l9.142-14.667h4.909v14.667h7.818V138.56Zm4.015,15.818H80.134a7.526,7.526,0,0,1-4.751-1.233,4.554,4.554,0,0,1-1.535-3.771c0-3.049,2.182-4.638,6.536-4.638h4.873Z" transform="translate(-0.046 -65.538)" fill="#fff"/>
  </g>
</svg>
